
<svg viewBox="0 0 708 769" version="1.1" xmlns="http://www.w3.org/2000/svg" xmlns:xlink="http://www.w3.org/1999/xlink">
    <g id="Page-1" stroke="none" stroke-width="1" fill="none" fill-rule="evenodd">
        <g id="map-wrap">
            <g id="map">
                <rect id="ocean" fill="#8AC1F9" fill-rule="nonzero" x="0" y="1" width="707" height="768"></rect>
                <g id="LAND" transform="translate(93.000000, 0.000000)" fill-rule="nonzero" stroke-linecap="round" stroke-linejoin="round">
                    <path d="M248.446313,61.9072566 C242.701567,58.7148688 235.003535,55.2447161 238.312,51.854 C233.586,48.85 235.728,43.764 230.528,41.696 C228.24,51.842 223.334,42.348 225.892,37.61 C214.74,38.09 213.004,46.658 218.438,54.996 C219.376,56.456 223.272,57.454 224.238,58.614 C226.042,60.784 225.99,63.61 227.484,65.91 C230.023533,69.8895789 233.165635,73.4506722 236.798,76.466 C236.75,76.484 242.758,74.042 240.84,75.42 C244.772,76.876 240.882,78.002 241.712,78.754 C243.568,80.428 246.456,81.31 249.202,82.954 C253.956,85.81 261.328,88.77 259.356,95.126 C255.978,90.732 247.444,85.034 246.396,94.808 C246.116,97.382 250.274,97.32 250.274,100.072 C250.284,104.636 248.264,101.816 246.776,105.016 C243.952,111.114 242.164,116.504 241.576,107.982 C241.5,106.774 244.328,91.578 238.376,94.01 C235.35,91.008 235.356,87.6 230.91,87.912 C228.738,82.378 222.86,82.324 218.034,79.258 C214.284548,76.4177443 210.753932,73.2996239 207.472,69.93 C203.54,65.654 203.256,58.752 199.472,54.976 C193.672,49.192 192.188,52.936 186.072,54.726 C184.556,55.168 182.694,54.326 180.208,55.222 C177.836,56.74 175.824,60.298 173.74,61.184 C168.478,63.436 161.328,55.396 156.408,57.892 C149.456,61.438 151.142,65.036 151.608,70.262 C151.613414,70.9857316 151.521251,71.7068907 151.596,73.036 L150.268,74.652 C148.539795,76.7819283 146.255313,78.3914497 143.19,79.502 C140.025254,80.5405811 137.043008,82.0691595 134.248,84.16 L133.144,86.138 L131.544,88.158 L129.498,91.704 L126.354,96.718 C126.753296,98.6244783 127.564947,100.420486 129.398,102.134 L129.05,104.274 C127.291978,106.809698 125.365644,109.224465 123.284,111.502 L123.108,113.572 L121.108,113.862 C119.22263,116.093493 117.137293,118.148035 114.878,120 C114.832,120.084 114.122,120.96 112.496,120.99 C111.855653,121.114308 111.204245,121.172613 110.552,121.164 L107.82,121.53 L105.864,121.052 C105.604,121.06 105.35,121.09 103.592,121.338 C101.014435,121.721149 98.4654045,122.27639 94.468,123.462 C93.924,123.634 93.384,123.804 92.472,124.136 L90.95,126.102 L89.286,127.31 L87.086,126.924 C85.73,127.168 84.566,126.47 83.786,122.416 L82.68,119.698 L81.234,118.33 C78.448,116.884 74.112,118.518 70.634,118.558 C62.43,118.634 75.676,99.604 64.83,72.39 L66.172,69.644 C65.806,69.664 65.43,69.714 64.254,68.094 C64.5684318,66.9728306 64.3757651,66.1621639 63.676,65.662 C62.382,64.92 61.978,64.156 61.718,63.038 L63.862,60.152 L65.954,59.652 C67.1908574,58.9344611 68.3043837,58.0228416 69.698,56.266 L73.568,55.758 C77.332397,55.8340886 81.0862859,56.1836762 84.8,56.804 L86.97,56.724 C88.7313333,57.216 90.134,57.508 91.178,57.6 C94.226,57.816 97.26,58.132 100.282,58.454 L103.414,58.486 L105.958,58.902 L109.884,58.75 C111.352,59.1793333 112.432,59.3993333 113.124,59.41 C113.754878,59.4143507 114.384219,59.3472567 115.286,59.142 C120.372,57.714 118.324,50.904 119.994,46.352 C120.504,43.398 120.634,40.364 121.212,37.488 C122.059082,38.3356163 122.831913,39.2543156 123.522,40.234 C121.708,37.408 119.276,33.664 120.596,30.234 C120.058,31.62 113.496,23.618 113.084,22.278 C114.3,21.7 113.646,21.54 115.802,19.574 C112.896,20.006 110.518,19.374 110.496,16.56 C107.65,16.738 97.074,13.974 94.814,11.064 C96.414,10.802 97.088,9.824 97.814,9.534 C97.29,9.282 96.128,9.76 95.528,9.734 C95.736,9.136 96.78,8.078 96.814,7.574 C95.918,7.684 95.016,7.786 94.118,7.898 C94.964,4.504 103.312,2.43 106.406,2.568 C109.2,2.688 109.976,6.278 113.67,4.568 C115.171583,4.18660706 116.747925,4.13745117 118.27,4.168 C116.955933,2.85009766 116.228027,2.568 116,1 C121.318359,1 602.170082,0.965820312 614,1 C614,38.4 614,221 614,227 C609.816246,222.613094 610.3,218.758 606.64,216.78 C603.63,215.16 595.38,217.32 593.44,218.686 C590.386,216.672 577.772,216.236 575.04,218.636 C572.928,220.458 561.696,217.582 558.528,217.09 C551.426,215.986 544.136,215.944 539.502,210.032 C537.344,207.272 538.016,201.028 532.28,203.342 C529.414,204.51 526.102,207.168 523.066,207.634 C515.35,208.854 512.372,203.59 506.924,200.654 C498.344,195.994 497.168,192.638 491.796,184.438 C489.84,181.438 474.554,183.676 471.682,184.838 C477.344,186.192 478.454,201.304 483.818,202.748 C486.176,203.388 491.112,208.68 489.066,211.204 C487.676,212.89 492.72,220.09 493.796,221.69 C493.188,218.396 494.176,209.182 498.242,212.182 C500.858,214.102 498.196,222.522 497.766,225.392 C503.782,227.112 514.066,228.422 519.866,224.088 C524.064,220.94 528.974,213.654 533.706,209.444 C533.65236,210.588373 533.729526,211.73513 533.936,212.862 C534.88,216.304 532.924,219.66 535.378,223.432 C537.484,226.652 540.332,227.704 543.866,229.288 C547.846,231.074 557.914,235.474 558.528,240.274 C559.094,244.712 553.094,247.982 551.47,251.404 C549.01,256.552 547.37,253.094 545.52,255.752 C543.718,258.34 545.282,264.088 544.352,265.306 C542.726,267.434 539.14,266.52 536.846,268.34 C533.036,271.388 536.036,273.596 530.01,274.868 C525.254,275.866 527.502,279.508 524.102,281.436 C519.802,283.894 503.284,281.18 504.484,290.916 C504.768,293.182 488.864,297.544 486.138,298.054 C481.562,298.912 481.68,302.35 478.094,304.094 C474.59401,305.44777 471.021107,306.604907 467.392,307.56 C464.334,308.448 459.736,307.212 457.114,308.83 C453.406,311.126 450.812,314.094 445.714,313.658 C438.076,313.034 438.606,304.654 436.834,297.792 C435.644,293.206 437.084,287.208 434.27,282.274 C431.784,277.92 427.82,274.918 425.602,270.364 C424.45,267.99 423.84,263.97 421.86,262.086 C415.522,256.082 410.514,254.268 408.988,244.818 C407.796,237.418 406.906,232.142 400.718,226.086 C399.118,224.514 395.518,224.782 395.518,221.314 C395.518,217.134 392.998,215.792 391.318,212.808 C390.226,210.872 389.094,208.208 387.788,205.534 C387.028,205 386.234,204.418 385.358,203.8 C384.8,203.4 376.584,197.4 376.4,197.6 C377.705103,194.038591 378.459115,190.298883 378.612,186.484 C374.516,193.596 376.954,203.624 368.492,195.568 C367.686273,194.749388 366.985555,193.833684 366.406,192.842 C367.544,195.396 368.568,198.028 369.686,200.47 C373.892,209.694 377.458,221.692 385.038,228.61 C377.984,227.69 392.136,243.222 393.224,245.458 C397.024,253.23 393.716,262.548 400.224,269.27 C404.46,273.634 406.53,274.98 408.73,282.234 C410.394,287.73 411.506,291.744 414.682,295.25 C414.704477,294.701853 414.785045,294.158398 414.921891,293.62867 C414.881499,293.618346 414.840878,293.608754 414.8,293.6 C414.84709,293.533163 414.911197,293.480531 414.974536,293.435245 C415.009573,293.312785 415.047645,293.191129 415.08873,293.07039 C414.968355,292.986332 414.743397,292.877535 414.362,292.724 C414.766884,292.727395 415.135899,292.492354 415.304,292.124 C417.32,293.586 416.314,292.934 418.02,294.124 C417.04331,294.525615 416.282742,294.120135 415.484517,293.813904 C416.735234,296.662987 419.717968,297.056985 422.704,299.084 C426.057942,301.45427 429.188289,304.126044 432.056,307.066 C438.284,313.382 442.56,316.414 434.144,321.88 C441.596,320.304 443.914,330.512 452.596,329.48 C458.5,328.774 463.396,326.236 469.196,324.974 C476,323.506 483.87,321.87 491.018,320.856 C495.56,320.222 494.284,318.856 495.644,322.856 C496.432209,325.391972 496.236561,328.131762 495.096,330.53 C496.636,330.102 496.214,330.906 497.276,331.06 C493.836,330.438 491.276,343.518 487.676,347.096 C485.176,349.552 482.25,357.142 481.45,360.676 C480.398,365.302 476.954,365.926 474.91,369.75 C466.366,385.802 449.204,392.986 436.91,406.136 C435.758,407.372 428.148,418.688 424.91,418.998 C419.122,419.556 415.536,432.518 413.22,437.056 C411.686,440.024 407.494,445.228 408.006,449.442 C408.288,451.874 412.198,454.514 412.786,456.856 C413.35,459.076 410.854,463.812 411.288,465.412 C412.108918,468.663659 413.358534,471.791735 415.004,474.714 C419.192,482.054 421.012,479.752 418.564,489.196 C416.878,495.74 419.526,505.518 419.526,509.76 C420.798,511.686 420.588,513.004 418.438,515.388 C423.114,521.522 395.464,536.094 390.56,538.272 C390.594,539.824 389.638,540.904 388.36,543.05 C387.90472,542.576324 387.523134,542.03698 387.228,541.45 C385.302,545.03 380.6,547.036 378.748,550.58 C376.336,555.216 378.054,554.818 379.548,559.398 C380.322,561.774 383.184,568.316 383.208,568.374 C384.022,573.684 381.042,578.716 381.306,583.774 C381.8,583.086 382.236,582.138 382.72,581.408 C381.696,592.122 366.032,589.946 361.41,598.322 C362.324,598.674 362.658,599.952 364.506,599.092 C364.344368,600.77224 363.926881,602.417907 363.268,603.972 C365.446,608.796 360.466,617.708 357.22,621.908 C353.62,626.59 350.248,631.894 346.62,637.094 C341.280868,644.308667 335.240759,650.977172 328.588,657.002 C324.892,660.526 312.198,662.036 312.71,665.636 C308.942,663.86 307.926,666.674 305.492,666.674 C302.81,666.674 297.964,663.374 295.526,665.556 C293.978,666.936 289.814,665.052 287.482,665.4 C285.722,665.658 282.98,667.63 281.026,668.16 C277.174,669.18 272.09,671.548 267.846,670.78 C263.978,670.084 262.112,662.398 260.26,668.258 C259.926,665.042 256.242,653.872 257.06,654.204 C262.776,656.51 254.842,640.504 254.392,639.654 C251.736,634.654 250.946,626.532 247.192,622.454 C233.85,607.926 234.754,592.696 231.268,573.866 C228.642,559.61 213.852,548.042 211.144,534.158 C209.502,525.638 213.618,520.026 214.848,511.266 C215.202,508.686 216.444,502.492 218.488,500.866 C221.364917,498.717843 223.731944,495.960864 225.42,492.792 C229.136,483.586 222.42,479.122 221.62,470.362 C221.242,466.19 222.832,463.85 220.386,458.362 C219.14,455.514 217.252,452.766 216.14,449.942 C215.37,448 215.798,443.412 214.14,441.812 C211.444722,438.998139 209.018803,435.93812 206.894,432.672 C204.762,428.266 199.42,425.424 196.468,421.448 C194.226059,417.97957 192.257448,414.34192 190.58,410.568 C193.678,409.536 194.756,406.592 194.236,403.32 C195.564,403.832 197.536,403.846 198.456,404.136 C191.838,402.136 199.038,399.136 194.638,396.336 C198.308,390.922 199.514,383.31 196.296,378.202 C193.40529,375.259119 190.259673,372.577983 186.896,370.19 C186.094,375.718 181.924,371.234 178.724,371.686 C177.324,371.876 176.72,373.944 174.814,373.92 C172.208,373.836 163.646,372.79 166.776,366.296 C164.85,365.096 164.25,362.522 162.25,361.296 C157.334,358.254 152.452,360.078 147.196,359.324 C142.694,360.908 134.4,361.84 129.478,364.04 C125.6,365.758 115.748,372.364 111.818,370.782 C105.55546,368.108531 98.6520894,367.308221 91.944,368.478 C85.386,369.82 77.676,374.182 71.774,373.15 C61.93,371.428 54.398,362.226 46.686,357.002 C44.2,355.332 30.746,347.296 33.286,344.32 C30.722,337.492 24.948,332.482 21.286,326.148 C18.92,327.676 19.82,327.464 19.108,325.106 C14.438,324.246 16.366,319.132 20.454,318.906 C14.924,319.252 10.81,321.618 7.394,316.594 C5.91,314.426 5.556,309.018 8.074,307.356 C7.262,303.99 4.622,298.426 0.94,297.824 C9.048,296.164 12.5,277.61 12.048,270.678 C11.862,267.752 9.06,265.432 8.882,263.166 C8.81,262.252 11.178,260.564 10.868,258.652 C10.224,254.72 7.99,251.43 5.39,250.92 C5.098,244 11.62,231.33 16.39,225.952 C19.008934,222.898169 20.9819603,219.345361 22.19,215.508 C23.904,211.19 25.768,210.366 28.254,207.142 C30.386,204.392 32.23,199.44 34.128,198.034 C35.924,195.15 43.794,193.462 47.34,190.896 C51.53,187.89 58.464,183.622 58.048,177.47 C57.424,168.37 59.398,159.086 66.798,152.35 C70.82,148.698 77.818,149.144 80.242,143.428 C81.776,139.8 84.14,130.394 87.842,129.228 C90.038,128.548 92.35,133.996 95.12,135.08 C97.046,135.826 99.726,134.604 101.846,134.604 C105.12,134.604 107.506,135.808 110.416,135.726 C118.05,135.54 124.348,129.536 130.216,126.486 C137.902,122.472 146.29,122.2 154.142,120.78 C158.126,120.066 163.938,122.208 166.852,121.408 C169.696,120.63 173.456,117.454 175.622,118.854 C176.868,119.66 183.798,120.038 184.92,119.886 C187.847253,119.577068 190.683714,118.688464 193.264,117.272 C201.702,112.99 200.794,124.374 206.918,118.498 C208.612,123.326 202.232,122.962 203.38,127.426 C204.018,129.914 206.768,129.704 207.168,132.314 C207.499134,133.995952 207.207713,135.740927 206.348,137.224 C205.292,140.16 198.376,146.95 198.334,146.734 C199.164,151.024 205.698,153.654 208.786,155.158 C215.634,158.492 221.938,157.012 228.872,159.492 C236.748,162.316 235.73,167.346 242.202,171.234 C245.35,173.128 251.706,173.16 255.506,174.928 C257.808,176 260.498,179.508 263.152,179.45 C277.1,179.156 264.216,154.114 285.278,157.394 C291.95,158.44 292.188,161.634 297.278,163.87 C302.257974,165.85974 307.408496,167.392714 312.666,168.45 C318.92,170.048 326.466,173.062 332.822,173.382 C339.064,173.704 341.986,170.122 348.478,169.182 C347.770355,169.613806 347.105953,170.112777 346.494,170.672 C357.026,166.358 365.636,179.296 374.596,168.802 C377.898,164.924 378.524,157.374 380.03,153.908 C381.646,150.164 385.188,146.716 386.162,143.284 C387.178,139.716 386.09,134.46 386.266,130.46 C386.668,121.218 389.34,125.908 383.588,125.234 C376.036,124.352 378.184,125.116 371.346,127.812 C364.388,130.556 364.228,127.966 358.588,125.566 C355.878,124.414 353.264,121.866 350.168,122.344 C346.84,122.854 349.004,126.794 347.384,127.29 C342.314,128.842 338.02,129.124 336.384,123.5 C334.069686,123.19585 331.717157,123.584922 329.878,123.178 C328.382,123.6 326.89,124.012 325.4,124.43 C327.502,123.444 329.698,121.69 331.776,120.644 C329.602,121.19 327.12,120.802 324.92,121.19 C325.516,118.218 324.506,118.274 325.154,115.49 C324.330025,115.333038 323.514895,115.13276 322.712,114.89 C324.964,108.864 314.714,112.71 318.252,105.954 C320.998,108.394 319.826,106.904 323.026,108.262 C320.2,105.432 320.488,102.082 321.426,98.282 C312.378,100.576 318.124,86.988 327.292,88.578 C330.316411,90.0276371 333.754307,90.367462 337.004,89.538 C336.438,88.708 336.166,88.69 335.588,87.938 C337.678,87.692 341.618,86.482 342.572,86.392 C338.704,86.702 336.818,85.392 338.114,81.912 C351.63,87.14 354.458,77.66 366.442,74.874 C379.828,71.758 382.814,78.27 391.28,81.616 C398.98,84.672 422.48,88.602 427.28,77.616 C432.75,65.104 397.972,47.982 391.48,42.668 C395.67,40.918 400.412,33.45 404.812,33.468 C399.756,30.42 397.468,26.718 405.068,27.118 C405.552,25.25 408.222,23.434 411.106,22.74 C408.698608,20.9979893 405.464989,20.9255473 402.982,22.558 C403.076013,21.5352741 403.01941,20.5042871 402.814,19.498 C402.178,26.636 385.186,26.686 380.27,33.558 C380.982101,32.426305 381.389295,31.1296235 381.452,29.794 C380.104,32.194 379.268,32.872 379.236,36.194 C378.585852,35.2617797 378.078276,34.2378646 377.73,33.156 C377.091371,33.4651916 376.591842,34.0025422 376.33,34.662 C375.608,33.058 374.856,33.03 373.584,31.078 C371.458,32.224 374.34,31.822 370.658,32.38 C371.620332,33.5712079 372.650014,34.7063953 373.742,35.78 C376.134,34.754 379.188,37.296 380.278,41.714 C384.316,41.334 386.206,40.2 391.298,40.224 C390.846,46.2 385.196,44.138 381.008,45.78 C378.722,46.676 375.982,49.798 374.582,49.898 C365.412,50.572 372.424,41.562 362.182,41.172 C364.227906,38.1708451 367.347872,36.0696289 370.898,35.302 C368.3,31.524 362.348,34.702 356.948,32.446 C356.626,31.416 357.892,31.32 358.524,30.616 C357.956,30.392 356.02,30.228 355.506,29.66 C357.02386,29.4444772 358.558245,29.3681596 360.09,29.432 C359.157339,28.4855014 358.28875,27.4779385 357.49,26.416 C356.61,27.092 356.378,27.904 355.18,26.898 C351.726,27.842 348.552,29.49 347.254,32.832 C346.588,31.912 345.57,31.646 344.678,30.846 C347.516,34.344 344.912,36.906 342,38.4 C341.612711,37.699853 341.271973,36.9749497 340.98,36.23 C341.348,43.122 341.274,46.432 335.18,50.5 C335.564,49.21 335.972,46.85 336.536,45.3 C330.992,52.696 334.024,63.466 325.64,69.798 C330.312,74.106 328.324,81.326 336.78,81.786 C335.202,86.486 331.502,82.834 327.402,84.404 C323.638,85.832 319.24,90.076 316.218,92.968 C317.842,90.308 317.204,89.624 320.642,87.652 C311.936,89.428 306.512,81.948 297.798,88.128 C299.396,89.202 300.916,91.166 302.384,92.08 C301.13,91.512 300.248,90.92 298.88,90.416 C299.254,91.32 299.294,92.9 299.916,94.32 C298.821059,93.2648318 297.598198,92.3510449 296.276,91.6 C296.682,92.622 297.42,93.152 297.8,94 C295.250618,92.8745451 293.272725,90.7550128 292.326,88.134 C286.614,91.978 294.036,98.128 294.478,102.178 C293.828,101.01 293.744,101.126 292.396,100.166 C290.458,104.034 293.018,101.328 289.704,103.844 C294.266,106.496 301.294,108.878 300.414,115.33 C298.301093,113.263489 295.435901,112.149488 292.482,112.246 C293.05,111.466 293.39,111.852 294.064,110.81 C288.3,107.906 279.472,111.97 276.826,104.306 C277.702,104.15 278.522,104.55 279.446,104.236 C276.938,102.978 279.006,102.65 276.754,103.526 C272.452,95.054 267.336,93.184 267.12,85.104 C266.98,79.484 267.964,78.2 264.9,73.684 C261.978,69.362 255.088,66.328 250.3,64.962 C251.435035,65.0732794 252.554021,65.3114328 253.636,65.672 C252.832692,64.4815701 250.807821,63.2198499 248.453836,61.9114375 C246.943364,61.7459081 246.271067,62.9664944 245.35,61.144 C246.571939,60.9494238 247.358488,61.7145962 248.446313,61.9072566 Z M175.39,403.86 C174.774,404.936 172.276,403.904 174.518,406.298 C176.288,405.4 175.022,404.514 175.39,403.86 Z M528.424,208 C529.6,207.468 529.874,206.142 531.93,206.81 C530.035829,208.36369 527.835276,209.500427 525.472,210.146 C525.968,209.24 527.116,208.8 528.424,208 Z M490.546,213.368 C490.504,213.388 491.434,215.368 491.494,212.368 C489.254,210.948 491.336,212.894 490.546,213.368 Z M439.038,491.942 C439.322,491.628 441.098,492.662 439.624,488.686 C438.122,489.764 439.306,490.45 439.038,491.942 Z M447.922,494.546 C447.467993,494.945748 446.937153,495.248598 446.362,495.436 C448.522,497.438 447.242,495.816 447.922,494.546 Z M452.41,499.142 C452.284895,499.860097 452.447248,500.598588 452.862,501.198 C453.69,500.138 452.636,499.984 452.41,499.142 Z M414.528,445.978 C414.484,445.056 413.646,443.686 413.888,442.2 C413.986459,442.351785 414.155077,442.443394 414.336,442.443394 C414.516923,442.443394 414.685541,442.351785 414.784,442.2 C415.276,443.736 414.452,444.312 414.528,445.978 Z M411.03,448.45 C411.538,450.66 410.164,451.868 412.8,453.292 C412.146,451.766 411.4,449.4 411.03,448.45 Z M230.826,130.49 C231.356,131.124 230.654,131.986 232.176,132.066 C232.144,131.168 231.454,131.236 230.826,130.49 Z M139.4,103.274 C138.558,103.184 138.762,101.042 137.096,103.958 C139.268,105.738 137.58,103.078 139.4,103.274 Z M151.092,94.116 C148.886633,94.8050952 146.90649,96.0731605 145.358,97.788 C149.662,101.708 153.82,99.2 151.092,94.116 Z M157.924,95.33 C157.542,94.308 159.504,92.628 155.774,93.888 C156.11,94.332 157.836,95.086 157.924,95.33 Z M203.56,149.4 C204.476,149.882 203.36,151.042 205.222,150.514 C205.288,147.88 204.304,149.8 203.56,149.4 Z M231.31,48.474 C230.932446,47.6793391 230.504231,46.9097543 230.028,46.17 C230.363495,45.2487076 230.471892,44.260101 230.344,43.288 C230.760059,44.9978156 231.082538,46.7290542 231.31,48.474 Z M250.442,65.732 C249.302,65.548 248.196,64.508 247.242,65.824 C248.31,65.8 249.366,65.766 250.442,65.732 Z M191.44,79.188 C187.582,71.8 191.014,70.2 194.612,64.87 C196.463107,70.0991357 196.127098,75.8538307 193.68,80.832 C192.922,79.49 192.63,79.938 191.44,79.188 Z M270.918,99.708 C270.746,98.718 271.872,97.072 268.862,96.378 C269.312,97.646 270.446,98.584 270.918,99.708 Z M300.964,106.628 C302.316,108.916 302.8,110.708 304.592,112.18 C304.157333,111.413333 304.059333,111.68 304.298,112.98 C300.65955,109.937334 296.780147,107.194998 292.698,104.78 C295.316,102.662 297.964,104.586 300.964,106.628 Z M276.65,111.858 C276,111.02 274.754,111.2 273.948,110.188 C274.473888,109.646507 275.058114,109.164907 275.69,108.752 C276.19,109.572 276.406,111.55 276.65,111.858 Z M284.758,123.82 C281.99,118.864 277.262,104.944 289.19,111.128 C292.537448,112.074722 295.211871,114.596086 296.354,117.882 C292.864,117.698 294.716,119.064 291.102,116.698 C292.624897,119.757243 293.493369,123.100348 293.652,126.514 C292.553096,125.661262 291.560648,124.679557 290.696,123.59 C290.542,123.932 289.256,126.366 288.958,126.766 C288.542,125.368 286.63,123.056 285.942,121.288 C285.212,122.148 285.282,122.946 284.758,123.82 Z M237.24,110.03 C239.2,110.134 238.21,121.174 236.662,122.578 C233.696,125.268 228.572,121.058 224.878,118.736 C207.886,108.042 228.256,113.404 237.24,110.03 Z M187.696,85.828 C189.158,85.892 184.57,105.272 193.056,102.172 C199.91,99.662 199.338,73.818 187.696,85.828 Z M305.644,86.628 C305.418,86.992 303.996,86.566 303.988,88.042 C306.504,88.956 305.07,87.572 305.644,86.628 Z M308.4,95.42 C308.05,95.906 307.188,94.732 309.69,94.186 C309.564,94.622 309.672,94.796 310,94.708 C309.586,96.388 308.762,94.908 308.4,95.42 Z M316.856,103.2 C318.056,102.544 317.902,101.742 319.232,102.744 C317.066,98.768 317.056,98.872 313.678,101.76 C313.768,101.732 316.254,101.246 316.376,101.304 C315.484,102.346 315.738,102.704 316.856,103.2 Z M313.748,106.628 C314.303599,107.737859 314.364612,109.030751 313.916,110.188 C314.468,108.516 317.196,107.746 313.748,106.628 Z M330.256,129.528 C329.254904,129.932991 328.300662,130.445318 327.41,131.056 C328.484,128.13 328.154,128.276 331.284,126.38 C331.056,127.488 330.42,128.448 330.256,129.528 Z M298.818,133.888 C301.95,136.07 311.5,137.782 316.698,136.996 C313.762,144.036 303.008,136.272 296.898,137.548 C296.874,134.964 297.632,134.87 298.818,133.888 Z M305.238,113.338 C305.98,113.828 306.426,115.064 306.984,115.556 C307.676,112.812 305.964,113.816 305.238,113.338 Z M311.578,120.102 C310.914,121.134 309.778,119.954 310.178,122.088 C312.244,122.584 310.85,121.234 311.578,120.102 Z M516.6,315.954 C508.134,315.57 515.984,320.954 520,316.522 C518.851604,316.437683 517.713443,316.247544 516.6,315.954 Z M488.214,514.884 C489.514,518.054 489.88,520.636 487.412,522.688 C486.758098,521.374517 485.912892,520.165346 484.904,519.1 C482.004,534.808 478.47,550.616 473.804,567.1 C470.198,579.774 466.976,601.32 449.42,595.1 C442.096,592.502 436.902,574.996 438.056,567.864 C438.954,562.224 446.31,557.968 447.154,552.088 C447.89,546.872 442.426,539.92 442.89,534.632 C443.788,524.21 455.978,519.138 462.268,523.774 C459.36,519.684 462.052,517.702 464.808,519.818 C465.443681,520.079156 466.174869,519.913559 466.636,519.404 C466.006,515.888 466.582,516.312 467.982,513.444 C469.05,514.724 467.606,514.886 468.05,516.006 C469.272,515.384 470.856,513.99 471.978,513.288 C468.742,509.956 471.058,511.276 471.978,509.888 C471.698177,508.315043 471.590875,506.716242 471.658,505.12 C472.928,505.75 472.636,506.326 473.558,507.032 C474.472,505.998 474.73,503.918 475.472,503.138 C478.538,503.084 478.914,500.388 477.592,496.968 C484.614,490.764 487.562,509.856 488.214,514.884 Z"
                        id="land" stroke="#999999" fill="#BBEF9A"></path>
                    <path d="M75.352,117.144 L74.866,114.926 L74.774,113.488 L75.804,112.162 L77.636,110.728 L78.528,109.528 L78.128,108.07 L76.928,106.74 L76.448,105 L76.536,103.15 L77.478,101.572 L77.964,100.358 L77.636,99.672 L76.064,97.272 L75.646,95.224 L76.762,94.348 L78.206,93.948 L79.464,92.456 L79.56,91.174 L78.676,89.852 L78.676,88.894 L79.788,85.05 L79.788,83.286 L79.954,81.982 L82.816,79.1 L83.84,77.248 L83.84,76.176 L82.816,75.032 L82.096,73.698 L80.036,73.298 L77.8,73.2 L76.068,74.074 L72.954,73.78 L71.21,73.958 L70.254,73.358 L70.09,71.758 L68.264,72.06 L66.336,72.86 L65.222,74.202 C65.9117817,76.9596599 66.4149218,79.7606737 66.728,82.586 C66.5320144,85.4462244 65.6660298,88.2202527 64.2,90.684 C63.4070062,92.9251835 62.8434536,95.241043 62.518,97.596 C61.8688986,99.3681302 61.6904235,101.278296 62,103.14 C62.24,103.882 65.6,106.632 65.86,105.14 L65.382,106.284 C65.1222417,107.461495 64.9941223,108.664208 65,109.87 C64.6617918,111.37161 64.5432236,112.914344 64.648,114.45 C65.214,118.238 67.892,117.638 70.648,118.598 L72.088,118.598 L74.242,117.564 L75.352,117.144 Z"
                        id="land_portugal" stroke="#57585B" fill="#69C130"></path>
                </g>
                <g id="INLAND-WATER" transform="translate(314.000000, 21.000000)" stroke="#999999" stroke-linecap="round" fill="#8AC1F9"
                    stroke-linejoin="round">
                    <path d="M300.752,21.7 C298.81,22.844 291.686,21.886 288.836,21.7 C285.132,21.454 279.168,22.034 277.882,21.516 C275.926,24.302 275.796,25.096 277.32,28.572 C273.832,28.194 270.826,27.404 267.52,28.41 C272.468,32.83 274.846,38.826 278.058,42.432 C279.276,43.8 284.058,44.632 284.8,45.788 C286.014,47.69 284.116,52.358 284.334,55.376 C285.986215,54.1995185 287.567626,52.9266431 289.07,51.564 C284.334,53.402 283.306,57.62 286.858,61.34 C279.912,44.54 309.292,60.91 297.09,65.06 C297.128,65.162 297.864,66.722 298.504,66.044 C294.418,66.554 288.882,66.644 287.152,62.388 C286.752,66.076 285.784,69.662 287.018,73.418 C288.05135,72.387889 289.497147,71.8837245 290.946967,72.0479285 C292.396787,72.2121324 293.693207,73.0268755 294.47,74.262 C291.888,73.696 293.028,74.126 290.908,74.352 C292.062,75.058 293.236,75.594 294.398,76.25 C293.198,76.686 292.06,77.62 290.798,78.07 C292.316,78.764 293.55,80.906 295.58,81.728 C291.792,87.772 299.894,103.426 290.482,101.38 C291.456,101.004 292.054,101.294 292.788,100.452 C280.224,102.594 276.264,103.478 266.26,96.318 C263.474,94.318 261.88,96.342 259.312,92.668 C257.254,89.708 257.978,82.05 259.456,79.516 C260.012,80.102 260.566,80.686 261.12,81.276 C262.198,76.696 262.106,65.948 268.892,69.772 C267.018,66.864 264.826,68.144 263.382,66.48 C260.24,62.836 259.02,58.138 255.526,54.654 C255.3,55.07 255.066,55.488 254.84,55.91 C254.44,48.89 248.37,43.746 249.29,34.768 C248.89,35.694 248.504,36.618 248.102,37.55 C247.006,29.82 243.146,31.35 244.328,24.104 C245.186,18.882 251.256,16.34 248.268,10.084 C255.328,14.316 251.512,14.702 259.526,9.56 C258.526,8.894 257.512,8.232 256.506,7.56 C263.832,5.93 269.906,2.19 276.106,0.898 C279.192466,0.844560732 282.278844,1.00963984 285.342,1.392 C291.124,3.738 297.016,13.614 301.116,20.17 C298.712,19.818 300.872,20.692 300.752,21.7 Z"
                        id="inlandWater_1"></path>
                    <path d="M139.972,163 C140.032543,162.189453 140.235658,161.39595 140.572,160.656 C141.223932,162.808099 142.014245,164.915824 142.938,166.966 C142.10207,165.536372 141.107075,164.20591 139.972,163 L139.972,163 Z"
                        id="inlandWater_6"></path>
                    <path d="M253.364,6.8 C254.206,6.6 255.15,5.414 257.236,5.772 C255.891335,5.86308927 254.576764,6.21210239 253.364,6.8 L253.364,6.8 Z"
                        id="inlandWater_5"></path>
                    <path d="M293.924,206.982 C293.864,207.346 291.092,206.938 293.596,207.992 C295.21,207.742 293.848,207.502 293.924,206.982 Z"
                        id="inlandWater_4"></path>
                    <polygon id="inlandWater_3" points="130.164 447.2 128.718 446 127.75 445.864 127.272 445.586 127.116 444.494 127.272 443.624 126.852 442.796 125.82 438.224 124.58 436.624 122.818 436.08 121.102 434.408 120.146 433.208 119.268 431.042 118.574 430.116 118.088 427.942 118.416 426.276 118.476 424.708 117.614 422.95 116.828 420.6 116.906 418.436 117.706 415.562 117.466 414.152 116.914 414.552 116.836 413.752 116.978 412.23 117.542 410.342 117.776 409.002 118.242 407.98 118.642 408.512 118.904 409.466 119.048 410.842 119.048 412.418 119.286 413.588 119.928 414.716 120.728 415.516 120.614 417.884 120.77 420.032 121.346 420.514 121.828 421.23 121.766 423.114 122.076 424.876 122.608 426.544 122.22 427.422 121.42 428.178 121.886 429.962 124.74 431.532 127.124 434.086 127.274 435.286 127.188 437.04 128.302 440.04 129.18 441.64 129.844 443.228 131.286 445.59"></polygon>
                    <polygon id="inlandWater_3" points="158.224 465.868 158.792 466.908 158.842 467.462 158.314 469.89 157.286 472 156.82 473.908 156.928 475.028 157.328 475.95 157.282 477.912 157.53 479.16 157.53 480.434 157.9 481.884 158.066 481.838 157.9 481.966 157.9 482.966 158.066 483.482 158.218 483.736 158.876 483.982 159.296 484.382 160.546 487.608 160.638 488.436 160.348 488.548 160.136 488.436 159.244 487.258 158.644 486.964 158.228 486.036 158.076 485.954 157.91 485.988 157.382 487.188 156.982 487.348 156.308 487.286 155.994 487.072 155.672 486.512 155.578 485.858 155.578 485.29 155.91 484.134 155.834 483.672 155.634 483.316 154.758 482.488 154.494 481.966 154.19 480.794 154.08 479.034 153.99 478.958 153.304 476.158 151.704 473.042 151.666 472.456 151.784 471.812 152.44 470.714 153.092 470.02 153.658 468.476 153.458 463.826 153.1 460.776 153.458 459.776 153.514 459.014 152.934 458.25 152.27 457.902 151.922 457.566 151.028 455.752 150.984 454.928 151.184 453.794 151.864 452.962 153.41 453.34 154.904 454.862 155.434 455.844 156.002 458.208 156.316 460.584 156.822 461.628 156.73 464.09 156.822 464.436 157.502 465.276"></polygon>
                    <polygon id="inlandWater_3" points="140.322 383.348 141.122 383.67 141.744 383.436 141.996 382.636 142.638 383.036 144.058 383.188 145.082 383.674 146.682 381.518 147.562 382.068 149.322 382.706 150.366 382.322 151.55 382.644 151.938 382.396 151.762 384.298 152.722 385.514 153.122 386.64 154.024 386.472 154.882 386.072 156.238 385.838 157.584 385.914 157.584 386.55 156.072 387.098 154.954 387.998 153.542 387.998 152.516 389.732 153.598 390.864 152.18 391.494 151.78 392.318 152.18 393.196 152.04 393.62 151.318 393.45 151.08 394.65 150.37 394.81 150.266 395.458 149.58 396.336 149.41 396.858 148.52 396.858 148.12 397.28 148.52 397.68 147.248 398.538 147.02 398.938 148.112 399.502 150.052 399.332 150.378 399.906 150.21 400.228 148.842 401.314 147.714 401.714 147.018 401.714 145.572 401.79 145.022 401.952 144.622 403.196 144.69 404.164 143.83 404.902 143.512 402.272 142.958 402.184 142.17 402.646 141.37 402.116 140.086 400.68 139.47 400.28 138.74 401.14 138.99 402.258 138.19 402.324 137.714 403.304 136.688 403.828 136.058 402.648 136.146 401.698 135.508 398.77 135.672 395.998 136.208 394.242 136.38 391.626 136.274 390.972 135.58 390.19 137.18 386.624 136.93 385.824 137.028 385.1 138.454 384.77 139.728 384.292"></polygon>
                    <path d="M14.826,291 C12.576,293.146 9.086,295.928 6.242,294.728 C6,294.628 0.056,285.942 0.242,285.128 C1.556,279.328 4.132,284.156 7.142,285.052 C9.91436348,286.745929 12.4912978,288.740672 14.826,291 Z"
                        id="inlandWater_2"></path>
                </g>
                <g id="LEGEND" transform="translate(23.000000, 681.000000)">
                    <rect id="legend-bg" stroke="#A4A4A4" stroke-width="2" fill="#FFFFFF" fill-rule="nonzero" x="0" y="0.074" width="498.726"
                        height="63.426" rx="8"></rect>
                    <text id="year-Portuguese-ship" font-family="Verdana" font-size="24" font-weight="normal" fill="#303030">
                        <tspan x="52" y="40">year Portuguese ships reached port</tspan>
                    </text>
                    <g id="marker" transform="translate(20.000000, 20.000000)">
                        <path d="M11.332,1.166 C17.4071322,1.166 22.332,6.09086775 22.332,12.166 C22.332,18.2411322 17.4071322,23.166 11.332,23.166 C5.25686775,23.166 0.332,18.2411322 0.332,12.166 C0.323468204,9.24601144 1.47965348,6.44315853 3.54440601,4.37840601 C5.60915853,2.31365348 8.41201144,1.1574682 11.332,1.166 L11.332,1.166 Z"
                            id="marker-bg" fill="#F9D53C" fill-rule="nonzero"></path>
                        <path d="M11.332,8.166 C13.541139,8.166 15.332,9.956861 15.332,12.166 C15.332,14.375139 13.541139,16.166 11.332,16.166 C9.122861,16.166 7.332,14.375139 7.332,12.166 C7.3385896,9.95959627 9.12559627,8.1725896 11.332,8.166 L11.332,8.166 Z"
                            id="marker-dot" fill="#FFFFFF" fill-rule="evenodd"></path>
                    </g>
                </g>
                <g id="TXT" transform="translate(27.000000, 65.000000)">
                    <text id="Portugal" font-family="Verdana" font-size="24" font-weight="normal" fill="#303030">
                        <tspan x="26" y="24">Portugal</tspan>
                    </text>
                    <text id="Songhay" font-family="Verdana-Italic, Verdana" font-size="24" font-style="italic" font-weight="normal" fill="#34422A">
                        <tspan x="136" y="260">Songhay</tspan>
                    </text>
                    <text id="Benin" font-family="Verdana-Italic, Verdana" font-size="24" font-style="italic" font-weight="normal" fill="#34422A">
                        <tspan x="240" y="296">Benin</tspan>
                    </text>
                    <text id="Kongo" font-family="Verdana-Italic, Verdana" font-size="24" font-style="italic" font-weight="normal" fill="#34422A">
                        <tspan x="282" y="372">Kongo</tspan>
                    </text>
                    <text id="Atlantic-Ocean" font-family="Verdana-Italic, Verdana" font-size="24" font-style="italic" font-weight="normal" line-spacing="26"
                        fill="#0043B0">
                        <tspan x="14.5" y="424">Atlantic</tspan>
                        <tspan x="22.140625" y="450">Ocean</tspan>
                    </text>
                    <text id="Indian-Ocean" font-family="Verdana-Italic, Verdana" font-size="24" font-style="italic" font-weight="normal" line-spacing="26"
                        fill="#0043B0">
                        <tspan x="555.5" y="348">Indian</tspan>
                        <tspan x="556.068359" y="374">Ocean</tspan>
                    </text>
                    <text id="date1434" font-family="Verdana" font-size="24" font-weight="normal" fill="#303030">
                        <tspan x="14" y="154">1434</tspan>
                    </text>
                    <text id="date1455" font-family="Verdana" font-size="24" font-weight="normal" fill="#303030">
                        <tspan x="0" y="246">1455</tspan>
                    </text>
                    <text id="date1460" font-family="Verdana" font-size="24" font-weight="normal" fill="#303030">
                        <tspan x="82" y="332">1460</tspan>
                    </text>
                    <text id="date1485" font-family="Verdana" font-size="24" font-weight="normal" fill="#303030">
                        <tspan x="220" y="504">1485</tspan>
                    </text>
                    <text id="date1488" font-family="Verdana" font-size="24" font-weight="normal" fill="#303030">
                        <tspan x="252" y="590">1488</tspan>
                    </text>
                    <path d="M347.466,540.418 L323.73,586.67" id="callOut-line" stroke="#303030" stroke-width="2"></path>
                    <text id="Cape-of-Good-Hope" font-family="Verdana" font-size="24" font-weight="normal" fill="#303030">
                        <tspan x="324" y="506">Cape of</tspan>
                        <tspan x="324" y="535">Good Hope</tspan>
                    </text>
                    <text id="Sofala" font-family="Verdana" font-size="24" font-weight="normal" fill="#303030">
                        <tspan x="488" y="558">Sofala</tspan>
                    </text>
                    <path d="M438.5,482.67 L489.106,536.166" id="callOut-line" stroke="#303030" stroke-width="2"></path>
                    <text id="Mombasa" font-family="Verdana" font-size="24" font-weight="normal" fill="#303030">
                        <tspan x="512" y="420">Mombasa</tspan>
                    </text>
                    <path d="M470,385.87 L508.464,402.744" id="callOut-line" stroke="#303030" stroke-width="2"></path>
                    <g id="marker" transform="translate(282.000000, 474.000000)">
                        <path d="M11.332,1.166 C17.4071322,1.166 22.332,6.09086775 22.332,12.166 C22.332,18.2411322 17.4071322,23.166 11.332,23.166 C5.25686775,23.166 0.332,18.2411322 0.332,12.166 C0.323468204,9.24601144 1.47965348,6.44315853 3.54440601,4.37840601 C5.60915853,2.31365348 8.41201144,1.1574682 11.332,1.166 L11.332,1.166 Z"
                            id="marker-bg" fill="#F9D53C" fill-rule="nonzero"></path>
                        <path d="M11.332,8.166 C13.541139,8.166 15.332,9.956861 15.332,12.166 C15.332,14.375139 13.541139,16.166 11.332,16.166 C9.122861,16.166 7.332,14.375139 7.332,12.166 C7.3385896,9.95959627 9.12559627,8.1725896 11.332,8.166 L11.332,8.166 Z"
                            id="marker-dot" fill="#FFFFFF" fill-rule="evenodd"></path>
                    </g>
                    <g id="marker" transform="translate(314.000000, 574.000000)">
                        <path d="M11.332,1.166 C17.4071322,1.166 22.332,6.09086775 22.332,12.166 C22.332,18.2411322 17.4071322,23.166 11.332,23.166 C5.25686775,23.166 0.332,18.2411322 0.332,12.166 C0.323468204,9.24601144 1.47965348,6.44315853 3.54440601,4.37840601 C5.60915853,2.31365348 8.41201144,1.1574682 11.332,1.166 L11.332,1.166 Z"
                            id="marker-bg" fill="#F9D53C" fill-rule="nonzero"></path>
                        <path d="M11.332,8.166 C13.541139,8.166 15.332,9.956861 15.332,12.166 C15.332,14.375139 13.541139,16.166 11.332,16.166 C9.122861,16.166 7.332,14.375139 7.332,12.166 C7.3385896,9.95959627 9.12559627,8.1725896 11.332,8.166 L11.332,8.166 Z"
                            id="marker-dot" fill="#FFFFFF" fill-rule="evenodd"></path>
                    </g>
                    <g id="marker" transform="translate(140.000000, 292.000000)">
                        <path d="M11.332,1.166 C17.4071322,1.166 22.332,6.09086775 22.332,12.166 C22.332,18.2411322 17.4071322,23.166 11.332,23.166 C5.25686775,23.166 0.332,18.2411322 0.332,12.166 C0.323468204,9.24601144 1.47965348,6.44315853 3.54440601,4.37840601 C5.60915853,2.31365348 8.41201144,1.1574682 11.332,1.166 L11.332,1.166 Z"
                            id="marker-bg" fill="#F9D53C" fill-rule="nonzero"></path>
                        <path d="M11.332,8.166 C13.541139,8.166 15.332,9.956861 15.332,12.166 C15.332,14.375139 13.541139,16.166 11.332,16.166 C9.122861,16.166 7.332,14.375139 7.332,12.166 C7.3385896,9.95959627 9.12559627,8.1725896 11.332,8.166 L11.332,8.166 Z"
                            id="marker-dot" fill="#FFFFFF" fill-rule="evenodd"></path>
                    </g>
                    <g id="marker" transform="translate(62.000000, 230.000000)">
                        <path d="M11.332,1.166 C17.4071322,1.166 22.332,6.09086775 22.332,12.166 C22.332,18.2411322 17.4071322,23.166 11.332,23.166 C5.25686775,23.166 0.332,18.2411322 0.332,12.166 C0.323468204,9.24601144 1.47965348,6.44315853 3.54440601,4.37840601 C5.60915853,2.31365348 8.41201144,1.1574682 11.332,1.166 L11.332,1.166 Z"
                            id="marker-bg" fill="#F9D53C" fill-rule="nonzero"></path>
                        <path d="M11.332,8.166 C13.541139,8.166 15.332,9.956861 15.332,12.166 C15.332,14.375139 13.541139,16.166 11.332,16.166 C9.122861,16.166 7.332,14.375139 7.332,12.166 C7.3385896,9.95959627 9.12559627,8.1725896 11.332,8.166 L11.332,8.166 Z"
                            id="marker-dot" fill="#FFFFFF" fill-rule="evenodd"></path>
                    </g>
                    <g id="marker" transform="translate(76.000000, 142.000000)">
                        <path d="M11.332,1.166 C17.4071322,1.166 22.332,6.09086775 22.332,12.166 C22.332,18.2411322 17.4071322,23.166 11.332,23.166 C5.25686775,23.166 0.332,18.2411322 0.332,12.166 C0.323468204,9.24601144 1.47965348,6.44315853 3.54440601,4.37840601 C5.60915853,2.31365348 8.41201144,1.1574682 11.332,1.166 L11.332,1.166 Z"
                            id="marker-bg" fill="#F9D53C" fill-rule="nonzero"></path>
                        <path d="M11.332,8.166 C13.541139,8.166 15.332,9.956861 15.332,12.166 C15.332,14.375139 13.541139,16.166 11.332,16.166 C9.122861,16.166 7.332,14.375139 7.332,12.166 C7.3385896,9.95959627 9.12559627,8.1725896 11.332,8.166 L11.332,8.166 Z"
                            id="marker-dot" fill="#FFFFFF" fill-rule="evenodd"></path>
                    </g>
                </g>
            </g>
        </g>
    </g>
</svg>